<svg width="60" height="51" fill="none" xmlns="http://www.w3.org/2000/svg"><path d="M0 42h45v9H0v-9zm55.5 0H60v9h-4.5v-9zM48 42h4.5v9H48v-9zm2.55-24.81a9.97 9.97 0 003-7.14C53.55 4.5 49.05 0 43.5 0v4.5c3 0 5.55 2.49 5.55 5.55 0 3.06-2.55 5.55-5.55 5.55v4.5c6.72 0 12 5.49 12 12.21V39H60v-6.72c0-6.66-3.84-12.42-9.45-15.09zm-8.46 7.41H37.5c-3 0-5.55-2.94-5.55-6s2.55-5.25 5.55-5.25v-4.5c-5.55 0-10.05 4.5-10.05 10.05A10.05 10.05 0 0037.5 28.95h4.59c3.15 0 5.91 2.22 5.91 6.15V39h4.5v-4.92c0-5.43-4.8-9.48-10.41-9.48z" fill="#FA4545"/></svg>