<svg width="25" height="60" fill="none" xmlns="http://www.w3.org/2000/svg"><path d="M10.5 0C9.66 0 9 .66 9 1.5V15c-.21 0-.45 0-.66.09-2.88.72-4.71 2.91-6.06 5.58C.9 23.28 0 26.52 0 30c.15 9 0 18.09 0 27 0 1.65 1.35 3 3 3h18c1.65 0 3-1.35 3-3 .12-9 0-18 0-27 0-3.48-.78-6.72-2.16-9.36-1.35-2.64-3.18-4.83-6.06-5.52-.24-.12-.63-.12-.78-.12V1.5c0-.84-.66-1.5-1.5-1.5h-3zM12 20.55c.96 0 1.89.15 2.34.45.21.09 1.26.78 2.16 2.43.84 1.68 1.5 4.08 1.5 6.57v24H6V30c0-2.49.66-4.89 1.5-6.57.9-1.65 1.95-2.34 2.16-2.43.42-.3 1.38-.45 2.34-.45z" fill="#FA4545"/></svg>