<svg width="60" height="60" fill="none" xmlns="http://www.w3.org/2000/svg"><path d="M58.983 49.103L34.202 24.295c2.538-6.387 1.283-13.92-3.93-19.105-6.277-6.277-16.048-6.85-23.008-1.774l10.48 10.508-3.875 3.793L3.416 7.32C-1.66 14.252-1.087 24.05 5.19 30.3c5.077 5.077 12.473 6.414 18.804 4.04l24.864 24.863a2.718 2.718 0 003.848 0l6.277-6.278c1.065-1.091 1.065-2.756 0-3.82zm-8.187 4.34L24.977 27.624a11.932 11.932 0 01-5.458 2.238c-3.712.546-7.615-.573-10.453-3.411a12.193 12.193 0 01-3.603-9.389l8.433 8.434 11.572-11.572-8.433-8.488c3.439-.137 6.796 1.064 9.389 3.63a12.196 12.196 0 013.384 10.807c-.328 1.938-1.146 3.74-2.402 5.35l25.819 25.791-2.43 2.429z" fill="#FA4545"/></svg>