<svg width="80" height="72" fill="none" xmlns="http://www.w3.org/2000/svg"><path d="M8.889 27.148l6.667-19.9h48.889l6.666 19.9H8.89zM64.445 49.26a6.683 6.683 0 01-4.715-1.942 6.617 6.617 0 01-1.952-4.69c0-1.76.702-3.447 1.952-4.691a6.683 6.683 0 014.715-1.943c1.768 0 3.463.699 4.714 1.943a6.617 6.617 0 011.952 4.69 6.61 6.61 0 01-1.953 4.69 6.684 6.684 0 01-4.713 1.943zm-48.89 0a6.684 6.684 0 01-4.713-1.942 6.617 6.617 0 01-1.953-4.69c0-1.76.702-3.447 1.953-4.691a6.684 6.684 0 014.714-1.943c1.768 0 3.463.699 4.714 1.943a6.617 6.617 0 011.952 4.69c0 1.76-.702 3.447-1.952 4.69a6.683 6.683 0 01-4.714 1.943zm55.2-44.222c-.888-2.565-3.377-4.422-6.31-4.422h-48.89c-2.933 0-5.422 1.857-6.31 4.422L0 31.571v35.377a4.41 4.41 0 001.302 3.127 4.456 4.456 0 003.142 1.296H8.89c1.179 0 2.31-.466 3.143-1.296a4.41 4.41 0 001.301-3.127v-4.422h53.334v4.422a4.41 4.41 0 001.301 3.127 4.456 4.456 0 003.143 1.296h4.445a4.452 4.452 0 003.142-1.296A4.41 4.41 0 0080 66.948V31.571L70.756 5.036z" fill="#000"/></svg>