<svg width="80" height="70" fill="none" xmlns="http://www.w3.org/2000/svg"><path d="M44.568 56.042c0-1.257.149-2.476.335-3.696H7.428V30.174h59.424v3.695c2.6 0 5.089.48 7.428 1.293V8.001c0-4.102-3.305-7.391-7.428-7.391H7.428C3.305.61 0 3.899 0 8v44.346c0 4.065 3.305 7.391 7.428 7.391h37.474c-.185-1.22-.334-2.439-.334-3.695zM7.428 8h59.424v7.39H7.428V8zM80 48.207l-7.91 7.835L80 63.876l-5.274 5.248-7.874-7.872-7.873 7.872-5.237-5.248 7.874-7.834-7.874-7.835 5.237-5.21 7.873 7.834 7.874-7.871L80 48.207z" fill="#000"/></svg>