<svg width="40" height="34" fill="none" xmlns="http://www.w3.org/2000/svg"><path d="M20 0c2.122 0 4.157.775 5.657 2.155S28 5.406 28 7.358c0 1.343-.38 2.593-1.08 3.679H32c1.9 0 3.5 1.232 3.9 2.87C39.92 28.64 40 29.026 40 29.43c0 .976-.421 1.912-1.172 2.602-.75.69-1.767 1.077-2.828 1.077H4c-1.06 0-2.078-.388-2.828-1.077S0 30.407 0 29.43c0-.405.08-.79 4.1-15.525.4-1.637 2-2.87 3.9-2.87h5.08A6.724 6.724 0 0112 7.359c0-1.952.843-3.823 2.343-5.203C15.843.775 17.878 0 20 0zm0 3.679c-1.06 0-2.078.387-2.828 1.077S16 6.382 16 7.358s.421 1.911 1.172 2.601c.75.69 1.767 1.078 2.828 1.078 1.06 0 2.078-.388 2.828-1.078C23.578 9.27 24 8.334 24 7.358s-.421-1.912-1.172-2.602c-.75-.69-1.767-1.077-2.828-1.077zM8 14.716V29.43h4v-4.598l2 1.839v2.76h4v-3.68l-4-3.679 4-3.678v-3.68h-4v2.76l-2 1.84v-4.6H8zm18 0c-2.22 0-4 1.637-4 3.679v7.357c0 2.042 1.78 3.68 4 3.68h6v-9.198h-4v5.518h-2v-7.357h6v-3.68h-6z" fill="url(#paint0_linear)"/><defs><linearGradient id="paint0_linear" x1="20" y1="0" x2="20" y2="33.11" gradientUnits="userSpaceOnUse"><stop stop-color="#ED5C5C"/><stop offset="1" stop-color="#B93434"/></linearGradient></defs></svg>