<svg width="27" height="22" fill="none" xmlns="http://www.w3.org/2000/svg"><path d="M27 2.581c-.994.452-2.065.749-3.175.89a5.548 5.548 0 002.426-3.07 11.152 11.152 0 01-3.51 1.354C21.72.645 20.289 0 18.663 0c-3.034 0-5.511 2.478-5.511 5.537 0 .439.051.865.142 1.265A15.738 15.738 0 011.883 1.02a5.478 5.478 0 00-.748 2.774c0 1.924.968 3.627 2.465 4.595-.916 0-1.768-.258-2.517-.645v.039a5.54 5.54 0 004.44 5.433 5.45 5.45 0 01-2.491.09c.697 2.182 2.723 3.808 5.163 3.847-1.885 1.497-4.272 2.374-6.88 2.374a11.4 11.4 0 01-1.316-.077 15.674 15.674 0 008.492 2.49c10.17 0 15.759-8.44 15.759-15.758 0-.245 0-.477-.013-.723A11.064 11.064 0 0027 2.581z" fill="#000"/></svg>